<svg width="40" height="41" viewBox="0 0 40 41" fill="none" xmlns="http://www.w3.org/2000/svg">
<rect y="0.5" width="40" height="40" rx="20" fill="white" fill-opacity="0.3"/>
<path d="M20 10.5C14.48 10.5 10 14.98 10 20.5C10 26.02 14.48 30.5 20 30.5C25.52 30.5 30 26.02 30 20.5C30 14.98 25.52 10.5 20 10.5ZM20 28.5C15.59 28.5 12 24.91 12 20.5C12 16.09 15.59 12.5 20 12.5C24.41 12.5 28 16.09 28 20.5C28 24.91 24.41 28.5 20 28.5ZM24.59 16.08L18 22.67L15.41 20.09L14 21.5L18 25.5L26 17.5L24.59 16.08Z" fill="white"/>
</svg>
