<svg width="64" height="64" viewBox="0 0 64 64" fill="none" xmlns="http://www.w3.org/2000/svg">
<path fill-rule="evenodd" clip-rule="evenodd" d="M57.6004 32C57.6004 38.7896 54.9033 45.301 50.1023 50.102C45.3014 54.9029 38.7899 57.6 32.0004 57.6C25.2108 57.6 18.6994 54.9029 13.8985 50.102C9.09753 45.301 6.40039 38.7896 6.40039 32C6.40039 25.2105 9.09753 18.699 13.8985 13.8981C18.6994 9.09716 25.2108 6.40002 32.0004 6.40002C38.7899 6.40002 45.3014 9.09716 50.1023 13.8981C54.9033 18.699 57.6004 25.2105 57.6004 32ZM35.2004 19.2C35.2004 20.0487 34.8632 20.8626 34.2631 21.4628C33.663 22.0629 32.8491 22.4 32.0004 22.4C31.1517 22.4 30.3378 22.0629 29.7376 21.4628C29.1375 20.8626 28.8004 20.0487 28.8004 19.2C28.8004 18.3513 29.1375 17.5374 29.7376 16.9373C30.3378 16.3372 31.1517 16 32.0004 16C32.8491 16 33.663 16.3372 34.2631 16.9373C34.8632 17.5374 35.2004 18.3513 35.2004 19.2ZM28.8004 28.8C27.9517 28.8 27.1378 29.1372 26.5376 29.7373C25.9375 30.3374 25.6004 31.1513 25.6004 32C25.6004 32.8487 25.9375 33.6626 26.5376 34.2628C27.1378 34.8629 27.9517 35.2 28.8004 35.2V44.8C28.8004 45.6487 29.1375 46.4626 29.7376 47.0628C30.3378 47.6629 31.1517 48 32.0004 48H35.2004C36.0491 48 36.863 47.6629 37.4631 47.0628C38.0632 46.4626 38.4004 45.6487 38.4004 44.8C38.4004 43.9513 38.0632 43.1374 37.4631 42.5373C36.863 41.9372 36.0491 41.6 35.2004 41.6V32C35.2004 31.1513 34.8632 30.3374 34.2631 29.7373C33.663 29.1372 32.8491 28.8 32.0004 28.8H28.8004Z" fill="#64B334"/>
</svg>
