<svg width="64" height="64" viewBox="0 0 64 64" fill="none" xmlns="http://www.w3.org/2000/svg">
<g id="information-circle">
<path id="Vector" fill-rule="evenodd" clip-rule="evenodd" d="M57.6004 31.9999C57.6004 38.7894 54.9033 45.3009 50.1023 50.1018C45.3014 54.9028 38.7899 57.5999 32.0004 57.5999C25.2108 57.5999 18.6994 54.9028 13.8985 50.1018C9.09753 45.3009 6.40039 38.7894 6.40039 31.9999C6.40039 25.2104 9.09753 18.6989 13.8985 13.898C18.6994 9.09704 25.2108 6.3999 32.0004 6.3999C38.7899 6.3999 45.3014 9.09704 50.1023 13.898C54.9033 18.6989 57.6004 25.2104 57.6004 31.9999ZM35.2004 19.1999C35.2004 20.0486 34.8632 20.8625 34.2631 21.4626C33.663 22.0628 32.8491 22.3999 32.0004 22.3999C31.1517 22.3999 30.3378 22.0628 29.7376 21.4626C29.1375 20.8625 28.8004 20.0486 28.8004 19.1999C28.8004 18.3512 29.1375 17.5373 29.7376 16.9372C30.3378 16.337 31.1517 15.9999 32.0004 15.9999C32.8491 15.9999 33.663 16.337 34.2631 16.9372C34.8632 17.5373 35.2004 18.3512 35.2004 19.1999ZM28.8004 28.7999C27.9517 28.7999 27.1378 29.137 26.5376 29.7372C25.9375 30.3373 25.6004 31.1512 25.6004 31.9999C25.6004 32.8486 25.9375 33.6625 26.5376 34.2626C27.1378 34.8628 27.9517 35.1999 28.8004 35.1999V44.7999C28.8004 45.6486 29.1375 46.4625 29.7376 47.0626C30.3378 47.6628 31.1517 47.9999 32.0004 47.9999H35.2004C36.0491 47.9999 36.863 47.6628 37.4631 47.0626C38.0632 46.4625 38.4004 45.6486 38.4004 44.7999C38.4004 43.9512 38.0632 43.1373 37.4631 42.5372C36.863 41.937 36.0491 41.5999 35.2004 41.5999V31.9999C35.2004 31.1512 34.8632 30.3373 34.2631 29.7372C33.663 29.137 32.8491 28.7999 32.0004 28.7999H28.8004Z" fill="#64B334"/>
</g>
</svg>
