<svg width="24" height="24" viewBox="0 0 24 24" fill="none" xmlns="http://www.w3.org/2000/svg">
  <path fill-rule="evenodd" clip-rule="evenodd" d="M12.7664 3.98269C13.0093 4.08337 13.2301 4.23093 13.416 4.41694L19.584 10.5839C19.7701 10.7699 19.9178 10.9907 20.0186 11.2337C20.1194 11.4768 20.1712 11.7373 20.1712 12.0004C20.1712 12.2636 20.1194 12.5241 20.0186 12.7671C19.9178 13.0102 19.7701 13.231 19.584 13.4169L13.416 19.5839C13.2301 19.77 13.0093 19.9175 12.7664 20.0182C12.5234 20.1189 12.263 20.1707 12 20.1707C11.737 20.1707 11.4766 20.1189 11.2336 20.0182C10.9906 19.9175 10.7699 19.77 10.584 19.5839L4.41598 13.4169C4.22982 13.231 4.08213 13.0102 3.98136 12.7671C3.8806 12.5241 3.82874 12.2636 3.82874 12.0004C3.82874 11.7373 3.8806 11.4768 3.98136 11.2337C4.08213 10.9907 4.22982 10.7699 4.41598 10.5839L10.584 4.41694C10.7699 4.23093 10.9906 4.08337 11.2336 3.98269C11.4766 3.88202 11.737 3.8302 12 3.8302C12.263 3.8302 12.5234 3.88202 12.7664 3.98269ZM11.2929 13.707C11.4804 13.8946 11.7348 13.9999 12 13.9999C12.2652 13.9999 12.5195 13.8946 12.7071 13.707C12.8946 13.5195 13 13.2652 13 12.9999V7.99994C13 7.73472 12.8946 7.48037 12.7071 7.29283C12.5195 7.1053 12.2652 6.99994 12 6.99994C11.7348 6.99994 11.4804 7.1053 11.2929 7.29283C11.1053 7.48037 11 7.73472 11 7.99994V12.9999C11 13.2652 11.1053 13.5195 11.2929 13.707ZM11.2929 16.707C11.4804 16.8946 11.7348 16.9999 12 16.9999C12.2652 16.9999 12.5195 16.8946 12.7071 16.707C12.8946 16.5195 13 16.2652 13 15.9999C13 15.7347 12.8946 15.4804 12.7071 15.2928C12.5195 15.1053 12.2652 14.9999 12 14.9999C11.7348 14.9999 11.4804 15.1053 11.2929 15.2928C11.1053 15.4804 11 15.7347 11 15.9999C11 16.2652 11.1053 16.5195 11.2929 16.707Z" fill="#B33434"/>
</svg>
